<svg xmlns="http://www.w3.org/2000/svg" xmlns:xlink="http://www.w3.org/1999/xlink" width="500" zoomAndPan="magnify" viewBox="0 0 375 374.999991" height="500" preserveAspectRatio="xMidYMid meet" version="1.0"><path stroke-linecap="round" transform="matrix(0.75, 0, 0, 0.75, 13.345611, 181.770149)" fill="none" stroke-linejoin="miter" d="M 6.997519 6.999177 L 457.414215 6.999177 " stroke="#ff5757" stroke-width="14" stroke-opacity="1" stroke-miterlimit="4"/><path stroke-linecap="round" transform="matrix(0, 0.75, -0.75, 0, 192.152058, 13.031249)" fill="none" stroke-linejoin="miter" d="M 7.000002 6.99962 L 458.260448 6.99962 " stroke="#ff5757" stroke-width="14" stroke-opacity="1" stroke-miterlimit="4"/><path stroke-linecap="round" transform="matrix(0.75, 0, 0, 0.75, 186.906203, 140.723384)" fill="none" stroke-linejoin="miter" d="M 7.000063 6.999031 L 220.921952 6.999031 " stroke="#ff5757" stroke-width="14" stroke-opacity="1" stroke-miterlimit="4"/><path stroke-linecap="round" transform="matrix(0.75, 0, 0, 0.75, 186.906203, 100.687347)" fill="none" stroke-linejoin="miter" d="M 7.000063 7.000204 L 197.687575 7.000204 " stroke="#ff5757" stroke-width="14" stroke-opacity="1" stroke-miterlimit="4"/><path stroke-linecap="round" transform="matrix(0.75, 0, 0, 0.75, 186.906203, 59.775282)" fill="none" stroke-linejoin="miter" d="M 7.000063 6.997542 L 156.755281 6.997542 " stroke="#ff5757" stroke-width="14" stroke-opacity="1" stroke-miterlimit="4"/><path stroke-linecap="round" transform="matrix(0.75, 0, 0, 0.75, 183.540388, 20.349039)" fill="none" stroke-linejoin="miter" d="M 6.998233 6.998157 L 78.784696 6.998157 " stroke="#ff5757" stroke-width="14" stroke-opacity="1" stroke-miterlimit="4"/><path stroke-linecap="round" transform="matrix(0, 0.75, -0.75, 0, 231.987572, 187.017921)" fill="none" stroke-linejoin="miter" d="M 7.002147 6.999055 L 220.924036 6.999055 " stroke="#ff5757" stroke-width="14" stroke-opacity="1" stroke-miterlimit="4"/><path stroke-linecap="round" transform="matrix(0, 0.75, -0.75, 0, 272.018864, 187.022683)" fill="none" stroke-linejoin="miter" d="M 7.001007 6.999111 L 197.683311 6.999111 " stroke="#ff5757" stroke-width="14" stroke-opacity="1" stroke-miterlimit="4"/><path stroke-linecap="round" transform="matrix(0, 0.75, -0.75, 0, 312.933061, 187.02053)" fill="none" stroke-linejoin="miter" d="M 6.998669 6.99929 L 156.759095 6.99929 " stroke="#ff5757" stroke-width="14" stroke-opacity="1" stroke-miterlimit="4"/><path stroke-linecap="round" transform="matrix(0, 0.75, -0.75, 0, 352.361701, 183.652298)" fill="none" stroke-linejoin="miter" d="M 7.000061 6.997893 L 78.781316 6.997893 " stroke="#ff5757" stroke-width="14" stroke-opacity="1" stroke-miterlimit="4"/><path stroke-linecap="round" transform="matrix(-0.75, 0, 0, -0.75, 187.499567, 233.319491)" fill="none" stroke-linejoin="miter" d="M 6.999424 6.998905 L 220.921313 6.998905 " stroke="#ff5757" stroke-width="14" stroke-opacity="1" stroke-miterlimit="4"/><path stroke-linecap="round" transform="matrix(-0.75, 0, 0, -0.75, 187.490075, 273.35553)" fill="none" stroke-linejoin="miter" d="M 7.002393 7.000082 L 197.684697 7.000082 " stroke="#ff5757" stroke-width="14" stroke-opacity="1" stroke-miterlimit="4"/><path stroke-linecap="round" transform="matrix(-0.75, 0, 0, -0.75, 187.494367, 314.267617)" fill="none" stroke-linejoin="miter" d="M 6.997698 6.997448 L 156.758124 6.997448 " stroke="#ff5757" stroke-width="14" stroke-opacity="1" stroke-miterlimit="4"/><path stroke-linecap="round" transform="matrix(-0.75, 0, 0, -0.75, 187.051867, 353.693854)" fill="none" stroke-linejoin="miter" d="M 7.001448 6.998056 L 74.293119 6.998056 " stroke="#ff5757" stroke-width="14" stroke-opacity="1" stroke-miterlimit="4"/><path stroke-linecap="round" transform="matrix(0, -0.75, 0.75, 0, 141.319008, 188.604655)" fill="none" stroke-linejoin="miter" d="M 6.998915 7.00174 L 220.920804 7.00174 " stroke="#ff5757" stroke-width="14" stroke-opacity="1" stroke-miterlimit="4"/><path stroke-linecap="round" transform="matrix(0, -0.75, 0.75, 0, 101.278234, 188.599924)" fill="none" stroke-linejoin="miter" d="M 6.997816 6.998814 L 197.685329 6.998814 " stroke="#ff5757" stroke-width="14" stroke-opacity="1" stroke-miterlimit="4"/><path stroke-linecap="round" transform="matrix(0, -0.75, 0.75, 0, 60.3683, 188.602063)" fill="none" stroke-linejoin="miter" d="M 7.000668 6.998517 L 156.755886 6.998517 " stroke="#ff5757" stroke-width="14" stroke-opacity="1" stroke-miterlimit="4"/><path stroke-linecap="round" transform="matrix(0, -0.75, 0.75, 0, 20.939871, 188.161761)" fill="none" stroke-linejoin="miter" d="M 7.00214 7.002047 L 74.293812 7.002047 " stroke="#ff5757" stroke-width="14" stroke-opacity="1" stroke-miterlimit="4"/></svg>